<svg id="Layer_1" data-name="Layer 1" xmlns="http://www.w3.org/2000/svg" xmlns:xlink="http://www.w3.org/1999/xlink" viewBox="0 0 1766.09 582"><defs><style>.cls-1,.cls-6{fill:#30292f;}.cls-2{mask:url(#mask);}.cls-3,.cls-4,.cls-5{fill:none;stroke-width:30px;}.cls-3{stroke:#d9311b;stroke-linecap:round;stroke-linejoin:round;}.cls-4{stroke:#1bdb75;}.cls-4,.cls-5{stroke-miterlimit:10;}.cls-5{stroke:#30292f;}.cls-6{font-size:300px;font-family:VarelaRound-Regular, Varela Round;letter-spacing:-0.07em;}.cls-7{filter:url(#luminosity-noclip);}</style><filter id="luminosity-noclip" x="202.39" y="362.23" width="493.12" height="376.77" filterUnits="userSpaceOnUse" color-interpolation-filters="sRGB"><feFlood flood-color="#fff" result="bg"/><feBlend in="SourceGraphic" in2="bg"/></filter><mask id="mask" x="99.89" y="113.23" width="493.12" height="376.77" maskUnits="userSpaceOnUse"><g class="cls-7"><g transform="translate(-102.5 -249)"><path d="M507.27,607.17a13.7,13.7,0,0,0-4.42-6.49q-.43-.39-.89-.75c-9.35-7.5-29.37-12.69-52.57-12.69s-43.22,5.19-52.57,12.69q-.46.36-.89.75a13.7,13.7,0,0,0-4.42,6.49,16.49,16.49,0,0,0,1.16,14.32l42.26,72.94a16.72,16.72,0,0,0,28.93,0l42.26-72.94A16.49,16.49,0,0,0,507.27,607.17Z"/></g></g></mask></defs><title>39Canine logo</title><path class="cls-1" d="M493.65,613.07a10.48,10.48,0,0,0-3.38-5q-.33-.3-.68-.58c-7.15-5.74-22.46-9.7-40.2-9.7s-33.05,4-40.2,9.7q-.35.28-.68.58a10.48,10.48,0,0,0-3.38,5,12.61,12.61,0,0,0,.88,11l32.32,55.78a12.79,12.79,0,0,0,22.13,0L492.77,624A12.61,12.61,0,0,0,493.65,613.07Z" transform="translate(-102.5 -249)"/><g class="cls-2"><path class="cls-3" d="M237.39,632a92,92,0,1,0,126-85.51,92,92,0,1,0-146-74.49" transform="translate(-102.5 -249)"/><path class="cls-4" d="M478,612.74A92.06,92.06,0,0,0,476.37,635c2.36,50.51,45.66,90,96.18,87.63,51.36-2.41,90.83-43.67,87.56-97.48a92.13,92.13,0,0,0-4.51-23.46c-9.33-28.12-4.56-58.8,11.09-84A92,92,0,0,0,581.62,377.5c-50.64,3.79-88.9,48.57-84.81,99.18" transform="translate(-102.5 -249)"/><path class="cls-4" d="M496.68,474.82a92,92,0,1,1,97.41,86.25C543.37,564.15,499.92,528.2,496.68,474.82Z" transform="translate(-102.5 -249)"/></g><circle class="cls-1" cx="487.19" cy="246.5" r="25.5"/><circle class="cls-1" cx="207.19" cy="246.5" r="25.5"/><circle class="cls-5" cx="346.89" cy="291" r="276"/><path class="cls-5" d="M610.07,315.57c66-6.84,137.6,78,162.55,195,25.9,121.53-8.27,231.82-76.33,246.32-20.33,4.33-41.38-.37-61.6-12.33" transform="translate(-102.5 -249)"/><path class="cls-5" d="M288.71,315.57c-66-6.84-137.6,78-162.55,195-25.9,121.53,8.27,231.82,76.33,246.32,20.33,4.33,41.38-.37,61.6-12.33" transform="translate(-102.5 -249)"/><text class="cls-6" transform="translate(695.71 371.84)">CANINE</text></svg>